<?xml version="1.0" encoding="UTF-8"?>
<svg id="Capa_2" data-name="Capa 2" xmlns="http://www.w3.org/2000/svg" viewBox="0 0 551.38 80.26">
  <defs>
    <style>
      .cls-1 {
        fill: #fff;
      }

      .cls-2 {
        fill: #07a7c3;
      }
    </style>
  </defs>
  <g id="Capa_1-2" data-name="Capa 1">
    <g>
      <g>
        <circle class="cls-2" cx="40.13" cy="40.13" r="40.13"/>
        <path class="cls-1" d="m50.1,65.41L31.55,30.77l24.06-16.88c1.02-.72,2.36-.59,3.25.31l7.11,7.2c.74.75,1.02,1.89.71,2.93l-11.78,40.51c-.69,2.37-3.66,2.72-4.81.57ZM27.45,29.76l6.5-4.56c1.6-1.13,1.6-3.66,0-4.78l-9.31-6.53c-1.02-.72-2.36-.59-3.25.31l-7.11,7.2c-.74.75-1.02,1.89-.71,2.93l11.78,40.51c.69,2.37,3.66,2.72,4.81.57l7.42-13.87c.47-.88.47-1.97,0-2.85l-10.13-18.93Z"/>
      </g>
      <path class="cls-1" d="m120.4,23.1c2.44,1.1,4.32,2.67,5.65,4.71,1.33,2.04,1.99,4.44,1.99,7.19s-.66,5.15-1.99,7.17c-1.33,2.02-3.21,3.58-5.65,4.68-2.44,1.1-5.32,1.65-8.63,1.65h-6.38v9.58h-10.36V21.45h16.74c3.31,0,6.19.55,8.63,1.65Zm-4.45,15.85c1.08-.92,1.62-2.24,1.62-3.95s-.54-3.03-1.62-3.98c-1.08-.94-2.69-1.41-4.81-1.41h-5.76v10.73h5.76c2.13,0,3.73-.46,4.81-1.39Zm30.19,9.39h-5.65v9.73h-10.36V21.45h16.74c3.31,0,6.19.55,8.63,1.65,2.44,1.1,4.32,2.67,5.65,4.71,1.33,2.04,1.99,4.44,1.99,7.19s-.62,4.96-1.86,6.93c-1.24,1.97-3.01,3.51-5.31,4.63l7.9,11.51h-11.09l-6.65-9.73Zm4.92-17.32c-1.08-.94-2.69-1.41-4.81-1.41h-5.76v10.73h5.76c2.13,0,3.73-.46,4.81-1.39,1.08-.92,1.62-2.24,1.62-3.95s-.54-3.03-1.62-3.98Zm80.16,27.05l-.1-19.41-9.42,15.8h-4.6l-9.37-15.28v18.89h-9.58V21.45h8.53l12.87,21.14,12.56-21.14h8.53l.1,36.63h-9.52Zm13.92-36.63h10.36v36.63h-10.36V21.45Zm19.02,32.91c-3.02-2.96-4.53-7.17-4.53-12.61v-20.3h10.36v19.99c0,5.86,2.32,8.79,6.96,8.79s6.91-2.93,6.91-8.79v-19.99h10.2v20.3c0,5.44-1.51,9.65-4.53,12.61-3.02,2.97-7.25,4.45-12.69,4.45s-9.67-1.48-12.69-4.45Zm67.05,3.71l-.1-19.41-9.42,15.8h-4.6l-9.37-15.28v18.89h-9.58V21.45h8.53l12.87,21.14,12.56-21.14h8.53l.1,36.63h-9.52Zm13.92-36.63h17.32c4.01,0,7.57.75,10.67,2.25,3.1,1.5,5.51,3.63,7.22,6.38,1.71,2.76,2.56,5.98,2.56,9.68s-.85,6.92-2.56,9.68c-1.71,2.76-4.12,4.88-7.22,6.38-3.11,1.5-6.66,2.25-10.67,2.25h-17.32V21.45Zm16.9,28.36c3.14,0,5.66-.89,7.56-2.67,1.9-1.78,2.85-4.24,2.85-7.38s-.95-5.6-2.85-7.38c-1.9-1.78-4.42-2.67-7.56-2.67h-6.54v20.09h6.54Zm90.47-28.36v36.63h-8.53l-16.17-19.52v19.52h-10.15V21.45h8.53l16.17,19.52v-19.52h10.15Zm12.19,8.21h-11.25v-8.21h32.81v8.21h-11.2v28.41h-10.36v-28.41Zm32.75,13.66l4.71-11.72,4.71,11.72,3.03,7.64,2.88,7.12h10.78l-16.22-36.63h-10.2l-16.17,36.63h10.57l2.88-7.12,3.04-7.64Zm26.11-21.87h10.36v28.41h17.48v8.21h-27.84V21.45Zm-127.88,28.62v-9.75l5.38,5.38,5.94-5.94-5.94-5.94-5.38,5.38v-9.75h18.47v-8.01h-28.73v36.63h29.41v-8.01h-19.15Zm106.58-7.91l5.94,5.94-5.94,5.94-5.94-5.94,5.94-5.94Zm-325.88,7.91v-9.75l5.38,5.38,5.94-5.94-5.94-5.94-5.38,5.38v-9.75h18.47v-8.01h-28.73v36.63h29.41v-8.01h-19.15Z"/>
    </g>
  </g>
</svg>